<?xml version="1.0" encoding="utf-8"?>
<!-- Generator: Adobe Illustrator 24.0.0, SVG Export Plug-In . SVG Version: 6.00 Build 0)  -->
<svg version="1.1" id="Layer_1" xmlns="http://www.w3.org/2000/svg" xmlns:xlink="http://www.w3.org/1999/xlink" x="0px" y="0px"
	 viewBox="0 0 122 95.04" style="enable-background:new 0 0 122 95.04;" xml:space="preserve">
<path id="Path_2" d="M79.43,22.43l0.04,0.08l0.01-0.03C79.47,22.46,79.46,22.45,79.43,22.43z"/>
<g>
	<polygon points="36.55,52.14 36.55,58.04 31.87,58.04 31.87,95.04 25.32,95.04 25.32,58.04 0,58.04 0,52.14 25.32,52.14 
		25.32,42.11 25.33,42.11 25.33,23.11 6.62,23.11 6.62,43.37 0.08,43.37 0.08,0 6.62,0 6.62,16.97 25.33,16.97 25.33,0 31.88,0 
		31.88,43.37 31.87,43.37 31.87,52.14 	"/>
	<path d="M111.85,0.11L101.71,22.5L90.55,0.2L79.48,22.48l-0.01,0.03l-0.04-0.08L69.2,0.11H59.02l7.49,15.41
		c-1.29-0.2-2.61-0.29-3.94-0.26c-6.05-0.13-11.89,2.22-16.17,6.5c-4.32,4.09-6.72,9.81-6.63,15.76c-0.18,6.11,2.17,12.03,6.5,16.35
		c-0.73,0.48-1.43,1.03-2.08,1.66c-2.76,2.62-4.3,6.28-4.24,10.09c-0.12,3.91,1.39,7.69,4.17,10.44c2.7,2.78,6.43,4.31,10.31,4.22
		c3.9,0.09,7.68-1.4,10.47-4.13c4.36-4.4,5.36-10.88,2.99-16.24C71.96,59,75.74,56.97,78.78,54c4.37-4.21,6.77-10.06,6.63-16.12
		c0.05-2.36-0.28-4.68-0.97-6.89v-0.01l6.1-13.96l10.92,25.26L122,0.11H111.85z M60.47,72.25c-3.32,3.2-8.57,3.18-11.86-0.03
		c-1.54-1.8-2.32-4.12-2.2-6.49c-0.09-2.29,0.72-4.53,2.26-6.24c0.79-0.77,1.7-1.36,2.66-1.76c2.99,1.66,6.34,2.6,9.8,2.71
		C63.4,64.08,63.18,68.82,60.47,72.25z M71.82,47.88c-2.4,2.53-5.77,3.89-9.25,3.74c-3.49,0.14-6.87-1.24-9.27-3.78
		c-2.29-2.48-3.43-5.87-3.43-10.14v-0.01c-0.15-3.58,1.11-7.08,3.51-9.75c2.37-2.53,5.72-3.91,9.18-3.78
		c3.49-0.14,6.87,1.24,9.26,3.78c2.32,2.49,3.48,5.81,3.47,9.97C75.29,42.07,74.13,45.39,71.82,47.88z"/>
</g>
</svg>
